<?xml version="1.0" encoding="UTF-8"?>
<svg width="427px" height="667px" viewBox="0 0 427 667" version="1.1" xmlns="http://www.w3.org/2000/svg" xmlns:xlink="http://www.w3.org/1999/xlink">
    <title>Path</title>
    <g id="Page-1" stroke="none" stroke-width="1" fill="none" fill-rule="evenodd" opacity="0.181488037">
        <g id="Desktop-Landing" fill="#E71131" fill-rule="nonzero">
            <path d="M248.964865,639.649098 C272.347089,580.37516 295.933907,521.101222 319.72532,461.827284 L344.978123,397.906128 C350.94059,383.087644 376.018025,316.711355 396.185193,263.399884 L423.630079,191.061128 C424.112475,189.76513 424.40772,188.406999 424.506912,187.027695 L425.033012,184.572561 C430.056437,167.130188 425.298802,148.33418 412.581978,135.382207 C400.409962,119.423334 379.750608,112.479013 360.41039,117.845539 C339.103339,123.544956 317.533237,130.559624 296.664602,137.311241 L268.693616,146.079575 L233.006497,157.566092 L238.355181,125.21094 C238.355181,123.018856 238.968964,121.26519 239.319697,119.599206 L250.806215,62.0789348 L280.355501,-85.229077 C281.471337,-90.14038 282.262202,-95.1198986 282.722951,-100.135245 C283.289239,-104.045051 281.170985,-107.850729 277.549634,-109.429679 L276.234384,-110.131146 C271.310054,-111.942588 265.901813,-111.942588 260.977482,-110.131146 L0.557961532,-26.8319723 C-3.18806992,-20.9856846 -5.25103728,-14.2203652 -5.40450561,-7.27858743 C-10.4901394,32.938838 -15.6342287,73.1562635 -20.8367735,113.373689 C-28.4652241,172.99836 -36.0936747,232.623032 -43.371392,292.335387 C-44.209536,301.874495 -44.209536,311.46873 -43.371392,321.007839 C-43.371392,325.216639 -42.9329753,329.776173 -42.845292,333.546557 L-39.9517417,343.454774 C-38.8118583,345.296124 -37.7596582,347.137474 -36.7074581,349.066508 L-31.271091,357.834842 C-11.7262804,389.671263 25.9796031,405.452658 62.3747165,397.029295 C84.0325016,390.979145 106.216387,383.964477 127.260388,377.21286 L156.371257,367.918426 L191.444594,356.694958 L187.586527,395.100262 L178.818193,473.226118 C173.732559,519.172188 168.617697,565.059803 163.473608,610.888962 C160.890477,625.676659 165.499679,640.810957 175.887047,651.648445 C186.274415,662.485932 201.199698,667.732613 216.083612,665.778733 C231.257537,664.364154 244.159516,654.111381 248.964865,639.649098 L248.964865,639.649098 Z" id="Path"></path>
        </g>
    </g>
</svg>