<?xml version="1.0" encoding="UTF-8"?>
<svg width="109px" height="109px" viewBox="0 0 109 109" version="1.1" xmlns="http://www.w3.org/2000/svg" xmlns:xlink="http://www.w3.org/1999/xlink">
    <title>Group</title>
    <g id="Page-1" stroke="none" stroke-width="1" fill="none" fill-rule="evenodd">
        <g id="Desktop-Test-Success" transform="translate(-667.000000, -151.000000)" fill-rule="nonzero">
            <g id="Group" transform="translate(667.000000, 151.000000)">
                <path d="M54.4963489,109 C24.3966638,108.996349 -0.00365110203,84.596034 0,54.4963489 C0.00365110203,24.3966638 24.403966,-0.00365110203 54.5036511,0 C84.6033362,0.00365110203 109.003651,24.4076171 109,54.5073022 C108.963489,84.5923829 84.5814296,108.970791 54.4963489,109 Z M54.4963489,3.65110203 C26.4120721,3.65475313 3.64745093,26.4193743 3.65110203,54.5036511 C3.65475313,82.5879279 26.4193743,105.352549 54.5036511,105.348898 C82.5842768,105.345247 105.345247,82.5842768 105.348898,54.5036511 C105.319689,26.4339787 82.5696724,3.68396195 54.4963489,3.65110203 Z" id="Shape" fill="#1E62FF"></path>
                <polygon id="Path" fill="#FFFFFF" points="71.020442 30 45.0850829 62.1009236 34.1859116 51.2984907 27 59.249831 45.9290055 78 79 37.0574454"></polygon>
            </g>
        </g>
    </g>
</svg>