<?xml version="1.0" encoding="UTF-8"?>
<svg width="122px" height="28px" viewBox="0 0 122 28" version="1.1" xmlns="http://www.w3.org/2000/svg" xmlns:xlink="http://www.w3.org/1999/xlink">
    <title>Logo A - WR</title>
    <g id="Page-1" stroke="none" stroke-width="1" fill="none" fill-rule="evenodd">
        <g id="Desktop-Test-Question" transform="translate(-1240.000000, -53.000000)" fill-rule="nonzero">
            <g id="Logo-A---WR" transform="translate(1240.000000, 53.000000)">
                <rect id="Rectangle" fill="#E71131" x="4" y="3" width="19" height="22"></rect>
                <path d="M21.8568361,0 L6.14316392,0 C2.75038817,0 0,2.75038817 0,6.14316392 L0,21.8568361 C0,25.2496118 2.75038817,28 6.14316392,28 L21.8568361,28 C25.2496118,28 28,25.2496118 28,21.8568361 L28,6.14316392 C28,2.75038817 25.2496118,0 21.8568361,0 Z M18.6123837,12.1660702 L18.6123837,12.2136722 C18.6090867,12.2408906 18.6032145,12.2677349 18.5948461,12.293844 C18.5221904,12.4792412 18.3042233,13.0454545 18.0536865,13.7219041 C17.6553329,14.7741589 17.1592699,16.0844667 17.051539,16.3775948 L16.5504653,17.6302792 C16.0844667,18.7994512 15.6184681,19.9686232 15.1524696,21.1377953 C15.062394,21.4257494 14.8088593,21.6319313 14.5085898,21.6614173 C14.2138518,21.7008059 13.9179616,21.5975734 13.711692,21.3833893 C13.5054223,21.1692052 13.4133984,20.8696396 13.4638511,20.5765927 C13.5657361,19.6696492 13.6676211,18.7635409 13.7695061,17.8582677 L13.9398712,16.3149606 L14.0175376,15.56335 L13.3085183,15.7838225 L12.7322835,15.9667144 C12.3138869,16.0994989 11.8804581,16.2397996 11.4495347,16.3575519 C10.7300195,16.5256347 9.98378704,16.2136105 9.59806729,15.583393 L9.4928418,15.4055118 L9.42770222,15.2952756 L9.37007874,15.0998568 C9.37007874,15.0171797 9.37007874,14.9345025 9.37007874,14.84932 C9.35371776,14.6609368 9.35371776,14.4714899 9.37007874,14.2831067 C9.51539012,13.1139346 9.66404199,11.9364114 9.81603436,10.7505369 C9.9195896,9.95549988 10.0206395,9.16129802 10.119184,8.36793128 C10.1225439,8.2309952 10.1632613,8.09758081 10.2369363,7.98210451 L15.3804581,6.33357194 C15.4775408,6.29813875 15.5840197,6.29813875 15.6811024,6.33357194 L15.7086614,6.34860415 C15.7770671,6.38339532 15.8154473,6.45813557 15.8038654,6.53400143 C15.7946254,6.63349934 15.7787224,6.73226549 15.7562634,6.82963493 C15.5658554,7.79670723 15.3737771,8.76461465 15.1800286,9.73335719 L14.9520401,10.8707946 C14.9520401,10.9033644 14.9520401,10.9384395 14.9345025,10.9810308 L14.8267717,11.6198998 L15.5332856,11.4044381 L16.0844667,11.2265569 C16.4978525,11.0937724 16.9237652,10.9559771 17.337151,10.8432355 C17.7197994,10.7391839 18.1272918,10.8779891 18.3668576,11.1939871 C18.616556,11.4508434 18.7101625,11.821449 18.6123837,12.1660702 Z" id="Shape" fill="#FFFFFF"></path>
                <path d="M33.0478219,20.6029265 L38.2629107,7.34840761 C38.3309303,7.14795152 38.5116543,7.0100257 38.7191697,7.0000967 L40.2719219,7.0000967 C40.4884786,6.99566345 40.6795519,7.14408804 40.7330869,7.35842803 L45.9530818,20.6029265 C46.0144069,20.7281818 46.0168599,20.8258809 45.9530818,20.8935188 C45.8836425,20.96891 45.7842214,21.007677 45.6832512,20.9987333 L43.669334,20.9987333 C43.4565093,21.0074104 43.265275,20.8668799 43.205716,20.6580388 L42.3201812,18.4034429 L36.6537394,18.4034429 L35.7853756,20.6580388 C35.725062,20.8663341 35.5343153,21.0065063 35.3217576,20.9987333 L33.2882164,20.9987333 C33.0183858,20.9987333 32.9374367,20.8659626 33.0478219,20.6029265 Z M39.5016783,10.6150666 L37.5221032,15.9584589 L41.4469114,15.9584589 L39.5016783,10.6150666 Z" id="Shape" fill="#FFFFFF"></path>
                <path d="M48.0001165,20.6186229 L48.0001165,7.36767594 C47.9978816,7.27290378 48.0278563,7.18018248 48.0851273,7.10471063 C48.1542676,7.02867456 48.2556321,6.99048387 48.3576617,7.00202894 L54.3584199,7.00202894 C54.9731299,6.99588297 55.5814151,7.12766684 56.1386448,7.38771139 C56.6703863,7.63436403 57.1479967,7.9842234 57.5438224,8.41703273 C57.9340376,8.84887979 58.243202,9.34775075 58.4564377,9.88963844 C58.6750323,10.4359359 58.7870672,11.0191365 58.7864794,11.6076784 C58.7860037,12.3998433 58.5605327,13.1755239 58.1363972,13.8441357 C57.7098157,14.536686 57.1166505,15.1110228 56.4111793,15.5145915 L58.9665021,20.6010919 C59.011166,20.6785793 59.011166,20.7740477 58.9665021,20.851535 C58.918577,20.9433088 58.8191977,20.9960665 58.7164705,20.9842699 L56.2861635,20.9842699 C56.0944349,20.9780289 55.9254964,20.8563117 55.8586094,20.6762248 L53.6083251,16.1457083 L50.750464,16.1457083 L50.750464,20.6186229 C50.7656412,20.7223871 50.7311445,20.8272517 50.6573571,20.9016533 C50.5835696,20.9760549 50.4791089,21.0113044 50.3754166,20.9967921 L48.3576617,20.9967921 C48.1201317,20.9967921 48.0001165,20.8715705 48.0001165,20.6186229 Z M53.6908355,9.42631861 L50.750464,9.42631861 L50.750464,13.653799 L53.6908355,13.653799 C54.2902864,13.6737027 54.8742737,13.4610757 55.3210415,13.0602487 C55.7494774,12.6732852 55.9870716,12.1176812 55.9711237,11.5400588 C55.9734743,11.2515819 55.9155605,10.9658017 55.8011022,10.7010742 C55.6909235,10.4454867 55.5272092,10.2165926 55.3210415,10.0298866 C55.1083316,9.83910215 54.8625957,9.68887162 54.5959499,9.58660223 C54.3068654,9.47710022 53.9998798,9.42273719 53.6908355,9.42631861 L53.6908355,9.42631861 Z" id="Shape" fill="#FFFFFF"></path>
                <path d="M61.4235758,7.00307113 L71.6643459,7.00307113 C71.7556079,6.98962675 71.8477448,7.02079852 71.9131823,7.08725748 C71.9786199,7.15371645 72.0097661,7.24775205 71.9972995,7.3412217 L71.9972995,8.90923843 C71.9962359,8.9833926 71.9838453,9.05692053 71.9605767,9.12715768 C71.9436242,9.17815595 71.9179245,9.22565513 71.8846829,9.26742755 L64.7359741,18.4325605 L71.6374159,18.4325605 C71.7280731,18.4222017 71.81829,18.4555173 71.881583,18.5227273 C71.944876,18.5899373 71.9740632,18.6834154 71.9605767,18.7757207 L71.9605767,20.6793832 C71.9605767,20.8922928 71.84796,21 71.6276231,21 L61.3305447,21 C61.1102077,21 61,20.8922928 61,20.6793832 L61,19.0562604 C60.9985884,18.9333135 61.037368,18.8134019 61.1102077,18.715605 L68.2882948,9.57802511 L61.4333685,9.57802511 C61.2007907,9.57802511 61.0832777,9.46530826 61.0832777,9.23987454 L61.0832777,7.33120242 C61.0636922,7.10576871 61.1909979,7.00307113 61.4235758,7.00307113 Z" id="Path" fill="#FFFFFF"></path>
                <path d="M74.0039773,7.41547413 C74.0010774,7.30813183 74.0381264,7.20360761 74.1077734,7.12263995 C74.1874725,7.0395056 74.3004233,6.99799256 74.4142189,7.01001142 L76.5939363,7.01001142 C76.6992352,7.01182575 76.8032322,7.0339097 76.9003818,7.07508569 C77.0018128,7.1159617 77.0846129,7.19357327 77.1326873,7.29283418 L83.2615978,16.2155166 L83.2615978,7.28282275 C83.2861764,7.18470395 83.3509015,7.10185525 83.4395339,7.05506284 C83.5120433,7.01967264 83.5913535,7.00087392 83.6718394,7 L85.5525253,7 C85.6609012,7.00358145 85.765107,7.04315705 85.8490855,7.11262853 C85.9467219,7.18121855 86.0034539,7.29518791 85.9998369,7.41547413 L85.9998369,20.5804978 C85.9998369,20.8583149 85.8490855,20.9959719 85.5525253,20.9959719 L83.7089094,20.9959719 C83.5936864,21.0071667 83.4782384,20.9770508 83.3826932,20.9108748 C83.3043573,20.8453738 83.2323632,20.7724614 83.1676871,20.6931263 L76.7051464,11.264867 L76.7051464,20.5804978 C76.717503,20.8583149 76.5815796,20.9959719 76.2949048,20.9959719 L74.4142189,20.9959719 C74.3010654,21.013121 74.1865867,20.9749024 74.1056841,20.8929679 C74.0247815,20.8110335 73.9870443,20.6950946 74.0039773,20.5804978 L74.0039773,7.41547413 Z" id="Path" fill="#FFFFFF"></path>
                <path d="M101.999833,14.0097389 C102.005456,14.9460422 101.818299,15.8734674 101.450032,16.7341963 C101.096106,17.5641613 100.585648,18.31807 99.9465923,18.9546656 C99.3016587,19.5900622 98.5422052,20.0973264 97.7084621,20.4495868 C96.8450695,20.8183299 95.9151874,21.0056175 94.9764837,20.9998346 C94.040852,21.0063719 93.1139951,20.8190263 92.2542363,20.4495868 C91.4264021,20.0970535 90.6733814,19.5896741 90.0355682,18.9546656 C87.3214773,16.2099875 87.3214773,11.7900125 90.0355682,9.04533445 C90.6733814,8.41032591 91.4264021,7.90294646 92.2542363,7.55041324 C93.1139951,7.18097369 94.040852,6.99362811 94.9764837,7.00016537 C95.9151874,6.99438247 96.8450695,7.18167006 97.7084621,7.55041324 C98.5422052,7.90267363 99.3016587,8.40993776 99.9465923,9.04533445 C100.585648,9.68193 101.096106,10.4358387 101.450032,11.2658037 C101.819252,12.1330755 102.006392,13.0670503 101.999833,14.0097389 Z M99.3043462,14.0097389 C99.3098126,13.4125184 99.1973769,12.820097 98.9734922,12.2664757 C98.7636782,11.7450965 98.4556089,11.2689786 98.0660764,10.8640741 C97.6763737,10.4639351 97.2129128,10.1431351 96.7013036,9.91940075 C96.1569907,9.68399243 95.5694168,9.56538695 94.9764837,9.57123507 C94.3907707,9.5669375 93.8106593,9.68554217 93.2735587,9.91940075 C92.7610818,10.142862 92.2967737,10.4636765 91.9063531,10.8640741 C91.5172867,11.2683679 91.2121758,11.7458527 91.0086683,12.2689105 C90.7914563,12.8241659 90.6824539,13.4159016 90.6875453,14.0121736 C90.68411,14.6011852 90.7931033,15.1854342 91.0086683,15.7335243 C91.2115953,16.256877 91.5167756,16.7344705 91.9063531,17.1383606 C92.295412,17.5392614 92.7590317,17.8601714 93.2711259,18.083034 C93.8082266,18.3168926 94.3883379,18.4354972 94.974051,18.4311997 C96.1375868,18.4430308 97.2547975,17.9755343 98.0636437,17.1383606 C98.4546935,16.7332517 98.7636631,16.2561923 98.9734922,15.7335243 C99.1962135,15.1863673 99.3086537,14.6005413 99.3043462,14.0097389 L99.3043462,14.0097389 Z" id="Shape" fill="#FFFFFF"></path>
                <path d="M113.912567,20.6489978 L111.883382,15.8784721 L109.992549,20.6489978 C109.919276,20.8618183 109.709771,21.0009167 109.480129,20.9892136 L107.858318,20.9892136 C107.641679,20.9909835 107.450198,20.8520413 107.389453,20.6489978 L102.042343,7.41560445 C101.985886,7.32223631 101.985886,7.20628061 102.042343,7.11291247 C102.104431,7.03758849 102.199638,6.99575739 102.298554,7.00034107 L104.481466,7.00034107 C104.707654,6.9958131 104.907225,7.14402913 104.963141,7.35806796 L108.670504,17.0867384 L112.357371,7.35806796 C112.411421,7.1558879 112.596881,7.01368403 112.810863,7.01034741 L115.075762,7.01034741 C115.178039,7.00058692 115.277199,7.04802768 115.331972,7.13292516 C115.383651,7.22262577 115.390264,7.33053384 115.349907,7.4256108 L113.284852,12.4287841 L115.157749,17.0667257 L118.941976,7.35806796 C119.001127,7.1507554 119.195563,7.00811624 119.415965,7.01034741 L121.673178,7.01034741 C121.780218,7.0012924 121.885159,7.04320885 121.955009,7.12291881 C122.014997,7.21531594 122.014997,7.33321367 121.955009,7.4256108 L116.451611,20.6590042 C116.41514,20.7663644 116.344152,20.8593637 116.249205,20.9241723 C116.164364,20.9745796 116.066678,21.000592 115.967374,20.9992199 L114.430112,20.9992199 C114.195817,21.0119533 113.982602,20.8676708 113.912567,20.6489978 Z" id="Path" fill="#FFFFFF"></path>
            </g>
        </g>
    </g>
</svg>