<svg width="122" height="28" viewBox="0 0 122 28" xmlns="http://www.w3.org/2000/svg">
    <g fill-rule="nonzero" fill="none">
        <path fill="#E71131" d="M4 3h19v22H4z"/>
        <path d="M21.857 0H6.143A6.143 6.143 0 0 0 0 6.143v15.714A6.143 6.143 0 0 0 6.143 28h15.714A6.143 6.143 0 0 0 28 21.857V6.143A6.143 6.143 0 0 0 21.857 0zm-3.245 12.166v.048a.433.433 0 0 1-.017.08c-.073.185-.29.751-.541 1.428-.399 1.052-.895 2.362-1.002 2.656l-.502 1.252-1.398 3.508a.752.752 0 0 1-.643.523.935.935 0 0 1-1.045-1.084l.306-2.719.17-1.543.078-.752-.71.22-.576.184c-.418.132-.852.273-1.282.39a1.714 1.714 0 0 1-1.852-.774l-.105-.177-.065-.11-.058-.196v-.25a3.272 3.272 0 0 1 0-.567c.145-1.17.294-2.347.446-3.532.104-.796.205-1.59.303-2.383a.752.752 0 0 1 .118-.386l5.143-1.648a.438.438 0 0 1 .301 0l.028.015c.068.034.106.11.095.185-.01.1-.025.198-.048.296-.19.967-.382 1.935-.576 2.903l-.228 1.138c0 .032 0 .067-.017.11l-.108.639.706-.216.551-.177c.414-.133.84-.271 1.253-.384a.972.972 0 0 1 1.03.351c.25.257.343.627.245.972zM33.048 20.603l5.215-13.255A.51.51 0 0 1 38.719 7h1.553a.468.468 0 0 1 .461.358l5.22 13.245c.061.125.064.223 0 .29a.327.327 0 0 1-.27.106H43.67a.465.465 0 0 1-.463-.341l-.886-2.255h-5.666l-.869 2.255a.467.467 0 0 1-.463.34h-2.034c-.27 0-.35-.132-.24-.395zm6.454-9.988-1.98 5.343h3.925l-1.945-5.343zM48 20.619V7.368a.419.419 0 0 1 .085-.263.32.32 0 0 1 .273-.103h6a4.112 4.112 0 0 1 1.78.386 4.43 4.43 0 0 1 1.406 1.029c.39.432.7.93.912 1.473.219.546.331 1.13.33 1.718a4.18 4.18 0 0 1-.65 2.236 4.862 4.862 0 0 1-1.725 1.67l2.556 5.087a.25.25 0 0 1 0 .25.25.25 0 0 1-.25.133h-2.43a.473.473 0 0 1-.428-.308l-2.25-4.53H50.75v4.473a.333.333 0 0 1-.375.378h-2.017c-.238 0-.358-.125-.358-.378zm5.69-11.193h-2.94v4.228h2.94c.6.02 1.184-.193 1.631-.594.428-.387.666-.942.65-1.52a2.072 2.072 0 0 0-.17-.839 1.943 1.943 0 0 0-.48-.671 2.342 2.342 0 0 0-.725-.443 2.474 2.474 0 0 0-.905-.16zM61.424 7.003h10.24a.29.29 0 0 1 .25.084c.065.067.096.16.083.254V8.91a.726.726 0 0 1-.036.218.456.456 0 0 1-.076.14l-7.149 9.166h6.901a.29.29 0 0 1 .245.09c.063.067.092.16.079.253v1.903c0 .213-.113.321-.333.321H61.33c-.22 0-.331-.108-.331-.32v-1.624a.56.56 0 0 1 .11-.34l7.178-9.138h-6.855c-.232 0-.35-.113-.35-.338V7.33c-.02-.225.108-.328.34-.328zM74.004 7.415a.431.431 0 0 1 .104-.292.37.37 0 0 1 .306-.113h2.18c.105.002.21.024.306.065.102.041.185.119.233.218l6.129 8.923V7.283a.355.355 0 0 1 .178-.228.543.543 0 0 1 .232-.055h1.88a.49.49 0 0 1 .297.113.357.357 0 0 1 .15.302V20.58c0 .278-.15.416-.446.416h-1.844a.49.49 0 0 1-.326-.085 1.61 1.61 0 0 1-.215-.218l-6.463-9.428v9.315c.013.278-.123.416-.41.416h-1.88a.358.358 0 0 1-.31-.103.368.368 0 0 1-.101-.313V7.415zM102 14.01a6.822 6.822 0 0 1-.55 2.724 7.022 7.022 0 0 1-1.503 2.22 7.16 7.16 0 0 1-2.239 1.496 6.848 6.848 0 0 1-2.732.55 6.775 6.775 0 0 1-2.722-.55 7.072 7.072 0 0 1-2.218-1.495 7.048 7.048 0 0 1 0-9.91 7.072 7.072 0 0 1 2.218-1.495A6.775 6.775 0 0 1 94.976 7a6.848 6.848 0 0 1 2.732.55 7.16 7.16 0 0 1 2.239 1.495c.639.637 1.15 1.39 1.503 2.22.37.868.556 1.802.55 2.745zm-2.696 0a4.54 4.54 0 0 0-.33-1.744 4.383 4.383 0 0 0-.908-1.402 4.24 4.24 0 0 0-3.09-1.293 4.189 4.189 0 0 0-1.702.348 4.323 4.323 0 0 0-1.368.945c-.389.404-.694.882-.897 1.405a4.676 4.676 0 0 0-.321 1.743 4.63 4.63 0 0 0 .32 1.722 4.222 4.222 0 0 0 3.966 2.697 4.236 4.236 0 0 0 3.09-1.293 4.486 4.486 0 0 0 1.24-3.129zM113.913 20.649l-2.03-4.77-1.89 4.77a.512.512 0 0 1-.513.34h-1.622a.483.483 0 0 1-.469-.34l-5.347-13.233a.292.292 0 0 1 0-.303A.313.313 0 0 1 102.3 7h2.182a.485.485 0 0 1 .482.358l3.708 9.729 3.686-9.729a.475.475 0 0 1 .454-.348h2.265a.274.274 0 0 1 .256.123c.052.09.058.198.018.293l-2.065 5.003 1.873 4.638 3.784-9.709a.485.485 0 0 1 .474-.348h2.257a.337.337 0 0 1 .282.113c.06.092.06.21 0 .303l-5.503 13.233a.527.527 0 0 1-.203.265.538.538 0 0 1-.282.075h-1.537a.512.512 0 0 1-.517-.35z" fill="#FFF"/>
    </g>
</svg>
