<svg width="427" height="667" viewBox="0 0 427 667" xmlns="http://www.w3.org/2000/svg">
    <path d="M248.965 639.65a32113.228 32113.228 0 0 1 70.76-177.823l25.253-63.92c5.963-14.82 31.04-81.196 51.207-134.507l27.445-72.339c.482-1.296.778-2.654.877-4.033l.526-2.455a50.33 50.33 0 0 0-12.451-49.19 49.103 49.103 0 0 0-52.172-17.537c-21.307 5.699-42.877 12.714-63.745 19.465l-27.971 8.769-35.688 11.486 5.35-32.355c0-2.192.613-3.946.964-5.612l11.486-57.52 29.55-147.308a114.602 114.602 0 0 0 2.367-14.906 8.768 8.768 0 0 0-5.173-9.295l-1.316-.701a22.096 22.096 0 0 0-15.257 0L.558-26.832A37.792 37.792 0 0 0-5.405-7.279a42527.132 42527.132 0 0 1-15.432 120.653c-7.628 59.624-15.257 119.249-22.534 178.961a163.792 163.792 0 0 0 0 28.673c0 4.209.438 8.768.526 12.539l2.893 9.908a116.933 116.933 0 0 1 3.245 5.612l5.436 8.768c19.545 31.836 57.25 47.618 93.646 39.194 21.658-6.05 43.841-13.065 64.885-19.816l29.111-9.295 35.074-11.223-3.858 38.405-8.769 78.126c-5.085 45.946-10.2 91.834-15.344 137.663a47.174 47.174 0 0 0 52.61 54.89 38.405 38.405 0 0 0 32.88-26.13z" fill="#E71131" fill-rule="nonzero" opacity=".181"/>
</svg>
